# xmcd CD database file generated by OrangeCD 5.0
#
# Track frame offsets:
#	150
#	14680
#	29212
#	45922
#
# Disc length: 832 seconds
#
# Revision: 1
# Processed by: cddbd v1.4PL0 Copyright (c) Steve Scherf et al.
# Submitted via: OrangeCD 5.0
#
DISCID=2e033e04
DTITLE=N Sync - Its Gonna Be Me
DYEAR=2000
DGENRE=Blues
TTITLE0=Its Gonna Be Me
TTITLE1=Its Gonna Be Me (Instrumental)
TTITLE2=This Is Where The Party Is At
TTITLE3=Bye Bye Bye (Teddy Riley Remix)
EXTD=
EXTT0=
EXTT1=
EXTT2=
EXTT3=
PLAYORDER=
